<?xml version="1.0" standalone="no"?>
<!DOCTYPE svg PUBLIC "-//W3C//DTD SVG 20010904//EN"
 "http://www.w3.org/TR/2001/REC-SVG-20010904/DTD/svg10.dtd">
<svg version="1.0" xmlns="http://www.w3.org/2000/svg"
 width="204.000000pt" height="105.000000pt" viewBox="0 0 204.000000 105.000000"
 preserveAspectRatio="xMidYMid meet">

<g transform="translate(0.000000,105.000000) scale(0.100000,-0.100000)"
fill="#000000" stroke="none">
<path d="M70 541 l0 -459 415 1 415 2 0 458 0 457 -415 0 -415 0 0 -459z m561
291 c68 -35 99 -89 99 -172 0 -77 -31 -136 -94 -174 -40 -25 -60 -30 -132 -34
l-84 -5 0 -118 0 -119 -75 0 -75 0 0 325 0 325 154 0 c148 0 156 -1 207 -28z"/>
<path d="M420 654 l0 -87 52 6 c79 10 116 58 92 122 -9 24 -58 45 -104 45
l-40 0 0 -86z"/>
<path d="M1630 887 c-54 -35 -73 -79 -78 -173 -4 -81 -5 -83 -31 -86 -24 -3
-26 -7 -29 -55 l-3 -53 30 0 31 0 0 -150 0 -150 70 0 70 0 0 150 0 150 45 0
45 0 0 55 0 55 -45 0 -45 0 0 64 c0 75 16 101 59 91 24 -5 29 -1 49 40 12 25
22 48 22 51 0 3 -16 12 -35 20 -52 21 -116 18 -155 -9z"/>
<path d="M1864 870 c-28 -11 -54 -48 -54 -78 0 -32 52 -82 85 -82 29 0 85 48
85 74 0 32 -20 66 -49 81 -34 17 -37 17 -67 5z"/>
<path d="M1000 488 c0 -129 2 -148 23 -188 35 -69 71 -85 197 -85 120 0 159
15 195 75 18 31 20 52 20 185 l0 150 -67 3 -66 3 -4 -136 c-3 -130 -4 -138
-27 -156 -30 -24 -72 -24 -102 0 -23 18 -24 27 -29 153 l-5 133 -67 3 -68 3 0
-143z"/>
<path d="M1827 623 c-4 -3 -7 -96 -7 -205 l0 -198 70 0 70 0 0 205 0 205 -63
0 c-35 0 -67 -3 -70 -7z"/>
</g>
</svg>
