<?xml version="1.0" encoding="iso-8859-1"?>
<!-- Generator: Adobe Illustrator 17.1.0, SVG Export Plug-In . SVG Version: 6.00 Build 0)  -->
<!DOCTYPE svg PUBLIC "-//W3C//DTD SVG 1.1//EN" "http://www.w3.org/Graphics/SVG/1.1/DTD/svg11.dtd">
<svg version="1.1" id="Capa_1" xmlns="http://www.w3.org/2000/svg" xmlns:xlink="http://www.w3.org/1999/xlink" x="0px" y="0px"
	 viewBox="0 0 470 470" style="enable-background:new 0 0 470 470;" xml:space="preserve">
<path d="M405.246,101.89l32.54-32.54c2.929-2.929,2.929-7.678,0-10.606c-2.93-2.929-7.678-2.929-10.607,0l-32.539,32.539
	c-44.453-41.809-102.22-64.754-163.521-64.754c-63.808,0-123.796,24.848-168.915,69.967c-2.211,2.211-2.818,5.562-1.523,8.408
	c1.295,2.846,4.215,4.591,7.339,4.377c1.576-0.108,3.176-0.162,4.756-0.162c18.498,0,35.887,7.203,48.966,20.281
	c14.136,14.136,21.462,33.71,20.1,53.704c-0.147,2.162,0.647,4.281,2.179,5.813c1.533,1.532,3.662,2.328,5.813,2.179
	c1.575-0.107,3.174-0.162,4.752-0.162c18.502,0,35.887,7.196,48.952,20.261c13.492,13.492,20.761,31.941,20.212,50.978
	L66.243,419.679c-5.669,5.67-13.207,8.792-21.225,8.792c-8.019,0-15.557-3.123-21.227-8.792C18.122,414.009,15,406.471,15,398.453
	c0-8.018,3.122-15.556,8.792-21.226c2.93-2.929,2.93-7.678,0.001-10.607c-2.93-2.928-7.679-2.929-10.606,0
	C4.683,375.123,0,386.428,0,398.453c0,12.025,4.683,23.33,13.186,31.833c8.503,8.503,19.808,13.186,31.833,13.186
	c12.024,0,23.329-4.683,31.832-13.186l157.52-157.52c0.671-0.019,1.342-0.034,2.009-0.034c18.502,0,35.887,7.196,48.951,20.261
	c14.137,14.136,21.463,33.71,20.101,53.704c-0.147,2.162,0.647,4.281,2.179,5.813c1.533,1.532,3.661,2.323,5.813,2.179
	c1.575-0.107,3.174-0.162,4.752-0.162c18.502,0,35.887,7.196,48.952,20.261c14.153,14.153,21.486,33.734,20.119,53.722
	c-0.214,3.12,1.531,6.044,4.377,7.339c0.997,0.453,2.055,0.673,3.104,0.673c1.949,0,3.868-0.76,5.306-2.197
	C445.151,389.207,470,329.218,470,265.411C470,204.11,447.054,146.342,405.246,101.89z M295.938,282.385
	c-13.002-13.002-29.522-21.204-47.418-23.769l116.159-116.158c2.929-2.929,2.929-7.677,0-10.606c-2.929-2.928-7.677-2.93-10.607,0
	L237.896,248.026c-2.59-17.819-10.817-34.5-23.754-47.437c-12.906-12.907-29.281-21.084-47.027-23.712
	c21.101-19.586,43.307-36.504,66.201-50.396c3.541-2.149,4.67-6.761,2.521-10.302c-2.148-3.542-6.763-4.67-10.303-2.521
	c-24.035,14.584-47.311,32.357-69.382,52.932c-2.531-17.954-10.784-34.773-23.807-47.796c-12.807-12.807-29.01-20.982-46.58-23.685
	c40.494-34.672,91.471-53.579,145.352-53.579c42.495,0,83.176,11.771,118.34,33.75c-4.31-0.318-8.759-0.409-13.355-0.233
	c-24.887,0.954-53.822,9.202-83.68,23.852c-3.719,1.825-5.254,6.318-3.43,10.037c1.304,2.656,3.968,4.198,6.739,4.198
	c1.108,0,2.235-0.247,3.298-0.769c52.883-25.948,98.656-29.492,124.686-10.158l-8.432,8.432c-2.929,2.929-2.929,7.678,0,10.606
	c1.465,1.465,3.385,2.197,5.304,2.197s3.839-0.732,5.304-2.197l8.447-8.447c15.198,20.387,16.401,52.795,3.2,92.397
	c-13.645,40.934-41.063,84.554-77.903,124.247C316.984,311.765,308.782,295.23,295.938,282.385z M377.734,364.182
	c-13.088-13.088-29.739-21.315-47.773-23.822c38.61-41.439,67.42-87.255,81.808-130.423c7.719-23.157,10.859-44.328,9.542-62.765
	C443.251,182.313,455,222.957,455,265.411c0,53.892-18.91,104.873-53.597,145.371C398.676,393.284,390.478,376.924,377.734,364.182z
	"/>
<g>
</g>
<g>
</g>
<g>
</g>
<g>
</g>
<g>
</g>
<g>
</g>
<g>
</g>
<g>
</g>
<g>
</g>
<g>
</g>
<g>
</g>
<g>
</g>
<g>
</g>
<g>
</g>
<g>
</g>
</svg>
